<?xml version="1.0" standalone="no"?>
<!DOCTYPE svg PUBLIC "-//W3C//DTD SVG 20010904//EN"
 "http://www.w3.org/TR/2001/REC-SVG-20010904/DTD/svg10.dtd">
<svg version="1.0" xmlns="http://www.w3.org/2000/svg"
 width="1200.000000pt" height="1201.000000pt" viewBox="0 0 1200.000000 1201.000000"
 preserveAspectRatio="xMidYMid meet">

<g transform="translate(0.000000,1201.000000) scale(0.100000,-0.100000)"
fill="#000000" stroke="none">
<path d="M512 11999 c-160 -21 -309 -104 -400 -224 -59 -79 -87 -145 -102
-243 -7 -45 -10 -1836 -8 -5562 3 -5237 4 -5498 21 -5554 57 -189 202 -334
392 -393 58 -17 211 -18 4235 -18 l4175 0 71 22 c131 41 247 138 312 260 65
124 62 34 60 1716 l-3 1525 -144 -259 c-161 -289 -196 -334 -335 -424 -45 -29
-192 -129 -329 -222 l-247 -169 -3 -680 -2 -679 -3552 -3 -3553 -2 0 4910 0
4910 3555 0 3555 0 -2 -1065 c-2 -585 0 -1061 3 -1057 4 4 94 158 201 342 107
184 351 604 541 932 l347 596 0 419 c0 241 -5 445 -11 483 -5 37 -27 100 -49
146 -64 134 -197 242 -350 286 -36 10 -859 13 -4180 14 -2274 1 -4164 -2
-4198 -7z"/>
<path d="M10055 10646 c-135 -35 -171 -68 -276 -249 -45 -78 -211 -365 -369
-637 -330 -569 -1030 -1775 -1453 -2505 -159 -275 -329 -567 -377 -650 -48
-82 -334 -575 -636 -1095 l-548 -945 -12 -220 c-7 -121 -25 -413 -39 -650 -93
-1522 -89 -1409 -46 -1492 57 -111 198 -170 312 -131 44 14 1843 1196 1887
1239 17 17 32 38 32 45 0 12 607 1063 1520 2634 59 102 409 705 777 1340 369
635 770 1328 893 1540 274 472 267 458 275 496 9 46 -28 185 -76 281 -208 413
-848 866 -1399 988 -100 23 -395 30 -465 11z m-3140 -6637 c236 -60 499 -196
740 -384 82 -64 183 -165 223 -221 l22 -32 -255 -166 c-141 -91 -258 -166
-260 -166 -3 0 -40 26 -83 57 -158 117 -353 229 -467 269 -44 15 -83 30 -86
33 -5 4 15 604 20 639 1 5 49 -5 146 -29z"/>
<path d="M2480 9844 c-153 -33 -310 -148 -372 -274 -146 -295 -9 -634 303
-748 l74 -27 2107 -3 c2324 -3 2183 -6 2318 60 127 62 238 201 275 345 22 84
20 246 -5 324 -51 167 -186 286 -365 324 -102 21 -4235 21 -4335 -1z"/>
<path d="M2448 7791 c-74 -24 -141 -64 -202 -120 -271 -252 -209 -699 119
-862 128 -63 -33 -59 2313 -59 l2143 0 61 21 c171 57 293 202 332 392 20 93
20 142 2 228 -39 181 -187 345 -364 399 -63 20 -97 20 -2206 19 -2043 0 -2144
-1 -2198 -18z"/>
<path d="M2535 5740 c-112 -16 -203 -60 -289 -139 -231 -214 -226 -569 11
-780 30 -27 81 -63 112 -79 120 -64 70 -62 1259 -62 746 0 1097 3 1134 11 186
38 347 190 402 378 18 62 21 203 5 271 -40 176 -191 328 -384 389 -44 13 -182
15 -1120 17 -588 1 -1097 -2 -1130 -6z"/>
<path d="M3559 3777 c-145 -49 -238 -123 -530 -422 -255 -260 -380 -396 -589
-640 -205 -241 -666 -818 -675 -846 -12 -36 -7 -96 10 -128 35 -68 140 -118
227 -108 75 9 104 31 196 149 130 167 385 476 523 633 156 180 489 545 496
545 3 0 -3 -12 -13 -27 -10 -16 -47 -75 -82 -133 -36 -58 -96 -151 -135 -207
-72 -106 -89 -152 -76 -212 10 -49 39 -82 99 -113 107 -57 225 -25 298 78 36
50 95 104 114 104 8 0 0 -26 -33 -98 -63 -136 -14 -234 132 -263 47 -9 66 -8
112 5 77 22 114 58 154 144 19 41 36 72 39 69 2 -2 -1 -27 -7 -54 -18 -77 -6
-115 51 -166 56 -50 161 -97 218 -97 20 0 82 16 137 36 201 70 247 84 318 95
105 17 360 5 557 -26 356 -55 449 -67 566 -68 115 -2 122 -1 161 25 105 69
112 248 14 331 -41 34 -39 34 -276 47 -110 5 -312 22 -450 36 -267 27 -569 36
-751 21 l-101 -8 -5 39 c-4 25 -22 60 -52 100 -83 109 -160 161 -269 183 -31
7 -57 16 -57 22 0 21 -73 98 -111 117 -21 11 -39 22 -39 25 0 2 13 26 29 54
88 148 140 312 148 461 9 166 -23 264 -98 302 -50 26 -166 24 -250 -5z"/>
</g>
</svg>
